<svg xmlns="http://www.w3.org/2000/svg" width="33.858" height="41.296" viewBox="0 0 33.858 41.296">
    <defs>
        <style>
            .cls-1{fill:#226cf8}
        </style>
    </defs>
    <path id="apple" d="M78.83 28.415a7.118 7.118 0 0 1-3.975-6.584 7.624 7.624 0 0 1 3.645-6.29l.027-.02a1.21 1.21 0 0 0 .278-1.636 10.4 10.4 0 0 0-8.679-4.376h-.006a9.482 9.482 0 0 0-1.862.194q.327-.261.632-.556a10.636 10.636 0 0 0 3.067-7.972A1.21 1.21 0 0 0 70.746 0a9.209 9.209 0 0 0-6.531 3.432 8.94 8.94 0 0 0-2.359 7.011 1.2 1.2 0 0 0 .209.519 36.347 36.347 0 0 1-1-.358A12.5 12.5 0 0 0 56.973 9.6a11.718 11.718 0 0 0-5.551 1.734c-2.414 1.5-5.292 4.623-5.292 10.983a28.345 28.345 0 0 0 3.293 11.8c1.382 2.667 4.25 7.143 7.932 7.164h.04c2.685 0 4.911-1.586 6.424-1.586 2.585 0 3.5 1.6 6.3 1.6 2.506 0 4.934-1.9 7.218-5.656A32.576 32.576 0 0 0 79.226 32c.762-1.717.762-1.946.762-2.114 0-.775-.588-1.129-1.158-1.471zM66.046 5.012a7.913 7.913 0 0 1 3.427-2.379 7.922 7.922 0 0 1-2.267 4.776 5.818 5.818 0 0 1-2.988 1.585 7.172 7.172 0 0 1 1.828-3.982zm9.107 29.56c-1.726 2.777-3.514 4.305-5.035 4.305-2.092 0-3.07-1.6-6.3-1.6-2.179 0-4.258 1.6-6.45 1.586-1.709-.01-3.931-2.254-5.8-5.858a25.776 25.776 0 0 1-3.022-10.686c0-4.176 1.373-7.165 4.079-8.884a9.387 9.387 0 0 1 4.353-1.415c1.888 0 4.509 1.676 6.419 1.676 1.72 0 4.022-1.765 6.728-1.765h.044a8.163 8.163 0 0 1 5.931 2.42 9.664 9.664 0 0 0 1.209 15.973 29.978 29.978 0 0 1-2.156 4.248z" class="cls-1" transform="translate(-46.13)"/>
</svg>
