<svg xmlns="http://www.w3.org/2000/svg" width="20.897" height="18.201" viewBox="0 0 20.897 18.201">
    <defs>
        <style>
            .cls-1{fill:none;stroke:#707070;stroke-width:2px}
        </style>
    </defs>
    <g id="comment-black-oval-bubble-shape" transform="translate(1 -35.507)">
        <path id="Path_8963" d="M17.632 39.866a8.548 8.548 0 0 0-3.438-2.457 12.258 12.258 0 0 0-4.745-.9 12.539 12.539 0 0 0-3.67.532 10.263 10.263 0 0 0-3.016 1.439 7.194 7.194 0 0 0-2.014 2.155A5.023 5.023 0 0 0 0 43.256a5.117 5.117 0 0 0 .954 2.963 7.743 7.743 0 0 0 2.61 2.32 6.7 6.7 0 0 1-.274.8q-.158.38-.285.622a4.284 4.284 0 0 1-.343.538q-.216.3-.327.416l-.364.4q-.253.28-.327.364a.737.737 0 0 0-.084.095l-.074.09-.063.095q-.053.079-.048.1a.281.281 0 0 1-.021.105.139.139 0 0 0 .005.127v.01a.53.53 0 0 0 .185.306.413.413 0 0 0 .322.095 7.915 7.915 0 0 0 1.2-.232 11.526 11.526 0 0 0 4.853-2.55 14.427 14.427 0 0 0 1.529.08 12.255 12.255 0 0 0 4.745-.9 8.546 8.546 0 0 0 3.438-2.457 5.174 5.174 0 0 0 0-6.78z" class="cls-1" data-name="Path 8963"/>
    </g>
</svg>
