<svg xmlns="http://www.w3.org/2000/svg" width="12.633" height="23.366" viewBox="0 0 12.633 23.366">
    <defs>
        <style>
            .cls-1{fill:#3b3b3b}
        </style>
    </defs>
    <g id="facebook-logo" transform="translate(0 .001)">
        <path id="Path_8934" d="M34.234 0H31.2c-3.4 0-5.6 2.257-5.6 5.75V8.4h-3.047a.476.476 0 0 0-.476.477v3.843a.476.476 0 0 0 .476.476H25.6v9.694a.476.476 0 0 0 .476.476h3.975a.476.476 0 0 0 .476-.476V13.2h3.563a.476.476 0 0 0 .476-.476V8.878a.477.477 0 0 0-.477-.477h-3.561V6.154c0-1.08.257-1.629 1.665-1.629h2.041a.476.476 0 0 0 .476-.476V.481A.477.477 0 0 0 34.234 0z" class="cls-1" data-name="Path 8934" transform="translate(-22.077)"/>
    </g>
</svg>
