<svg xmlns="http://www.w3.org/2000/svg" id="facebook-logo" width="18.204" height="33.671" viewBox="0 0 18.204 33.671">
    <defs>
        <style>
            .cls-1{fill:#cacdd8}
        </style>
    </defs>
    <path id="Path_8934" d="M39.6.007L35.229 0c-4.905 0-8.076 3.252-8.076 8.286v3.821h-4.39a.687.687 0 0 0-.687.687v5.536a.687.687 0 0 0 .687.687h4.39v13.967a.686.686 0 0 0 .687.687h5.728a.687.687 0 0 0 .687-.687V19.016h5.133a.686.686 0 0 0 .687-.687v-5.536a.687.687 0 0 0-.687-.687h-5.133V8.868c0-1.557.371-2.347 2.4-2.347h2.941a.686.686 0 0 0 .686-.687V.694A.687.687 0 0 0 39.6.007z" class="cls-1" data-name="Path 8934" transform="translate(-22.077)"/>
</svg>
