<svg xmlns="http://www.w3.org/2000/svg" id="linkedin-letters" width="33.316" height="31.841" viewBox="0 0 33.316 31.841">
    <defs>
        <style>
            .cls-1{fill:#cacdd8}
        </style>
    </defs>
    <g id="Group_1476" data-name="Group 1476">
        <path id="Rectangle_1547" d="M0 0h7.158v21.495H0z" class="cls-1" data-name="Rectangle 1547" transform="translate(.412 10.346)"/>
        <path id="Path_8937" d="M171.14 141.793a7.7 7.7 0 0 0-5.965-2.462 8.6 8.6 0 0 0-2.484.336 5.636 5.636 0 0 0-1.887.943 8.082 8.082 0 0 0-2.071 2.275v-3.055H151.6l.022 1.041q.022 1.041.022 6.42t-.043 14.033h7.136V149.33a5.238 5.238 0 0 1 .239-1.757 4.606 4.606 0 0 1 1.377-1.854 3.512 3.512 0 0 1 2.289-.749 3.086 3.086 0 0 1 2.744 1.291 6.275 6.275 0 0 1 .878 3.568v11.5h7.136V149q0-4.746-2.26-7.207z" class="cls-1" data-name="Path 8937" transform="translate(-140.08 -129.483)"/>
        <path id="Path_8938" d="M4.034 9.708a4.083 4.083 0 0 0-2.917 1.052A3.493 3.493 0 0 0 0 13.417a3.554 3.554 0 0 0 1.084 2.646 3.914 3.914 0 0 0 2.863 1.063h.043a4.087 4.087 0 0 0 2.94-1.063 3.434 3.434 0 0 0 1.1-2.646 3.618 3.618 0 0 0-1.111-2.657 3.966 3.966 0 0 0-2.885-1.052z" class="cls-1" data-name="Path 8938" transform="translate(0 -9.708)"/>
    </g>
</svg>
