<svg xmlns="http://www.w3.org/2000/svg" width="23.12" height="22.097" viewBox="0 0 23.12 22.097">
    <defs>
        <style>
            .cls-1{fill:#3b3b3b}
        </style>
    </defs>
    <g id="linkedin-letters" transform="translate(0 .001)">
        <g id="Group_1476" data-name="Group 1476">
            <path id="Rectangle_1547" d="M0 0h4.967v14.916H0z" class="cls-1" data-name="Rectangle 1547" transform="translate(.286 7.18)"/>
            <path id="Path_8937" d="M165.159 141.04a5.346 5.346 0 0 0-4.139-1.709 5.966 5.966 0 0 0-1.724.233 3.911 3.911 0 0 0-1.309.655 5.609 5.609 0 0 0-1.437 1.579v-2.121h-4.95l.015.723q.015.723.015 4.455t-.03 9.739h4.952v-8.324a3.635 3.635 0 0 1 .166-1.219 3.2 3.2 0 0 1 .956-1.287 2.437 2.437 0 0 1 1.588-.52 2.142 2.142 0 0 1 1.9.9 4.355 4.355 0 0 1 .61 2.476v7.977h4.952v-8.549a7.166 7.166 0 0 0-1.565-5.008z" class="cls-1" data-name="Path 8937" transform="translate(-143.605 -132.497)"/>
            <path id="Path_8938" d="M2.8 9.708a2.834 2.834 0 0 0-2.024.73A2.424 2.424 0 0 0 0 12.282a2.467 2.467 0 0 0 .753 1.836 2.716 2.716 0 0 0 1.987.738h.03a2.836 2.836 0 0 0 2.04-.738 2.383 2.383 0 0 0 .76-1.836 2.511 2.511 0 0 0-.77-1.844 2.752 2.752 0 0 0-2-.73z" class="cls-1" data-name="Path 8938" transform="translate(0 -9.708)"/>
        </g>
    </g>
</svg>
