<svg xmlns="http://www.w3.org/2000/svg" width="29.92" height="36.826" viewBox="0 0 29.92 36.826">
    <defs>
        <style>
            .cls-1{fill:#cacdd8}
        </style>
    </defs>
    <g id="pinterest">
        <g id="Group_1477" data-name="Group 1477">
            <path id="Path_8939" d="M63.465 0C53.372 0 48 6.468 48 13.52c0 3.271 1.828 7.349 4.753 8.643.444.2.686.115.785-.3.087-.313.472-1.821.658-2.532a.651.651 0 0 0-.157-.64 8.387 8.387 0 0 1-1.739-5.086c0-4.919 3.911-9.695 10.565-9.695 5.754 0 9.78 3.738 9.78 9.085 0 6.042-3.2 10.222-7.352 10.222a3.291 3.291 0 0 1-3.469-4.037c.656-2.658 1.943-5.517 1.943-7.435A2.856 2.856 0 0 0 60.813 8.6c-2.341 0-4.24 2.318-4.24 5.43a7.741 7.741 0 0 0 .7 3.312s-2.316 9.354-2.746 11.1c-.727 2.958.1 7.748.17 8.16a.243.243 0 0 0 .442.113c.228-.3 3.027-4.293 3.812-7.179.285-1.052 1.457-5.317 1.457-5.317.771 1.393 3 2.56 5.368 2.56 7.052 0 12.148-6.2 12.148-13.891C77.9 5.517 71.587 0 63.465 0z" class="cls-1" data-name="Path 8939" transform="translate(-48.004)"/>
        </g>
    </g>
</svg>
