<svg xmlns="http://www.w3.org/2000/svg" width="20.763" height="25.556" viewBox="0 0 20.763 25.556">
    <defs>
        <style>
            .cls-1{fill:#3b3b3b}
        </style>
    </defs>
    <g id="pinterest">
        <g id="Group_1477" data-name="Group 1477">
            <path id="Path_8939" d="M58.733 0C51.729 0 48 4.488 48 9.382c0 2.27 1.268 5.1 3.3 6 .308.139.476.08.545-.206.061-.217.327-1.263.457-1.757a.452.452 0 0 0-.109-.444 5.82 5.82 0 0 1-1.209-3.532c0-3.413 2.714-6.728 7.332-6.728 3.993 0 6.787 2.594 6.787 6.3 0 4.193-2.219 7.094-5.1 7.094a2.284 2.284 0 0 1-2.407-2.8c.455-1.845 1.348-3.829 1.348-5.159a1.982 1.982 0 0 0-2.051-2.18c-1.624 0-2.942 1.608-2.942 3.768a5.372 5.372 0 0 0 .486 2.3l-1.906 7.7a17.238 17.238 0 0 0 .118 5.662.168.168 0 0 0 .307.078A20.125 20.125 0 0 0 55.6 20.5l1.011-3.69a4.415 4.415 0 0 0 3.725 1.776c4.894 0 8.43-4.3 8.43-9.64C68.75 3.829 64.37 0 58.733 0z" class="cls-1" data-name="Path 8939" transform="translate(-48.004)"/>
        </g>
    </g>
</svg>
