<svg xmlns="http://www.w3.org/2000/svg" width="32" height="35.009" viewBox="0 0 32 35.009">
    <defs>
        <style>
            .cls-1{fill:#226cf8}
        </style>
    </defs>
    <g id="playstore" transform="translate(-22)">
        <g id="Group_1495" data-name="Group 1495" transform="translate(22)">
            <path id="Path_8948" d="M52.239 14.5L27.308.552A3.44 3.44 0 0 0 22 3.441v28.126a3.44 3.44 0 0 0 5.308 2.89l24.932-13.95a3.44 3.44 0 0 0 0-6zm-8.381-2.061l-3.442 3.442L28.23 3.7zM24.294 31.954V3.055L38.795 17.5zm3.936-.641l12.186-12.187 3.442 3.442zm22.89-12.808l-5.181 2.9-3.9-3.9 3.9-3.9 5.181 2.9a1.147 1.147 0 0 1 0 2z" class="cls-1" data-name="Path 8948" transform="translate(-22)"/>
        </g>
    </g>
</svg>
