<?xml version="1.0"?>
<svg xmlns="http://www.w3.org/2000/svg" xmlns:xlink="http://www.w3.org/1999/xlink" version="1.1" viewBox="0 0 192 192" width="32px" height="32px"><g fill="none" fill-rule="nonzero" stroke="none" stroke-width="1" stroke-linecap="butt" stroke-linejoin="miter" stroke-miterlimit="10" stroke-dasharray="" stroke-dashoffset="0" font-family="none" font-weight="none" font-size="none" text-anchor="none" style="mix-blend-mode: normal"><path d="M0,192v-192h192v192z" fill="none"/><g fill="#2055aa"><g id="surface1"><path d="M102,18c-13.26562,0 -24,10.73438 -24,24h-36v30c-13.26562,0 -24,10.73438 -24,24c0,13.26563 10.73438,24 24,24v30h36c0,13.26563 10.73438,24 24,24c13.26563,0 24,-10.73437 24,-24h36v-42h-12c-7.14844,0 -12,-4.85156 -12,-12c0,-7.14844 4.85156,-12 12,-12h12v-42h-36c0,-13.26562 -10.73437,-24 -24,-24zM102,30c7.14844,0 12,4.85156 12,12v12h36v18c-13.26562,0 -24,10.73438 -24,24c0,13.26563 10.73438,24 24,24v18h-36v12c0,7.14844 -4.85156,12 -12,12c-7.14844,0 -12,-4.85156 -12,-12v-12h-36v-30h-12c-7.14844,0 -12,-4.85156 -12,-12c0,-7.14844 4.85156,-12 12,-12h12v-30h36v-12c0,-7.14844 4.85156,-12 12,-12z"/></g></g></g></svg>
