<svg xmlns="http://www.w3.org/2000/svg" width="27.199" height="22.093" viewBox="0 0 27.199 22.093">
    <defs>
        <style>
            .cls-1{fill:#3b3b3b}
        </style>
    </defs>
    <g id="twitter-logo-silhouette" transform="translate(0 .001)">
        <g id="Group_1478" data-name="Group 1478">
            <path id="Path_8940" d="M27.2 60.055a11.142 11.142 0 0 1-3.2.879 5.6 5.6 0 0 0 2.453-3.085A11.248 11.248 0 0 1 22.9 59.2a5.584 5.584 0 0 0-9.5 5.091 15.841 15.841 0 0 1-11.5-5.83 5.586 5.586 0 0 0 1.727 7.448 5.58 5.58 0 0 1-2.527-.7v.07a5.585 5.585 0 0 0 4.475 5.471 5.651 5.651 0 0 1-1.47.2 5.355 5.355 0 0 1-1.05-.1 5.583 5.583 0 0 0 5.211 3.875A11.2 11.2 0 0 1 1.332 77.1 11.858 11.858 0 0 1 0 77.024a15.772 15.772 0 0 0 8.553 2.51A15.765 15.765 0 0 0 24.428 63.66l-.019-.722a11.142 11.142 0 0 0 2.791-2.883z" class="cls-1" data-name="Path 8940" transform="translate(-.001 -57.441)"/>
        </g>
    </g>
</svg>
