<svg xmlns="http://www.w3.org/2000/svg" width="39.194" height="31.837" viewBox="0 0 39.194 31.837">
    <defs>
        <style>
            .cls-1{fill:#cacdd8}
        </style>
    </defs>
    <g id="twitter-logo-silhouette">
        <g id="Group_1478" data-name="Group 1478">
            <path id="Path_8940" d="M39.2 61.208a16.056 16.056 0 0 1-4.617 1.266 8.074 8.074 0 0 0 3.534-4.445A16.209 16.209 0 0 1 33 59.981a8.047 8.047 0 0 0-13.7 7.33 22.827 22.827 0 0 1-16.571-8.4A8.05 8.05 0 0 0 5.22 69.643a8.041 8.041 0 0 1-3.642-1.009v.1a8.048 8.048 0 0 0 6.449 7.884 8.144 8.144 0 0 1-2.119.282 7.716 7.716 0 0 1-1.514-.149 8.045 8.045 0 0 0 7.506 5.584 16.132 16.132 0 0 1-9.985 3.436A17.086 17.086 0 0 1 0 85.661a22.727 22.727 0 0 0 12.324 3.618C27.116 89.278 35.2 77.027 35.2 66.4l-.027-1.041a16.056 16.056 0 0 0 4.027-4.151z" class="cls-1" data-name="Path 8940" transform="translate(-.001 -57.441)"/>
        </g>
    </g>
</svg>
